<?xml version="1.0" encoding="UTF-8" standalone="no"?>
<svg
   xmlns:dc="http://purl.org/dc/elements/1.1/"
   xmlns:cc="http://creativecommons.org/ns#"
   xmlns:rdf="http://www.w3.org/1999/02/22-rdf-syntax-ns#"
   xmlns:svg="http://www.w3.org/2000/svg"
   xmlns="http://www.w3.org/2000/svg"
   xmlns:sodipodi="http://sodipodi.sourceforge.net/DTD/sodipodi-0.dtd"
   xmlns:inkscape="http://www.inkscape.org/namespaces/inkscape"
   version="1.1"
   x="0px"
   y="0px"
   width="100px"
   height="100px"
   viewBox="0 0 100 100"
   enable-background="new 0 0 100 100"
   xml:space="preserve"
   id="svg2"
   inkscape:version="0.48.3.1 r9886"
   sodipodi:docname="projeto-pedagogico-democratico.svg"><metadata
   id="metadata130"><rdf:RDF><cc:Work
       rdf:about=""><dc:format>image/svg+xml</dc:format><dc:type
         rdf:resource="http://purl.org/dc/dcmitype/StillImage" /><dc:title /></cc:Work></rdf:RDF></metadata><defs
   id="defs128">
	
	
	
	
	
	
	
	
	
	
	
	
	
	
	
	
	
	
	
	
	
	
	
	
	
	
	
</defs><sodipodi:namedview
   pagecolor="#ffffff"
   bordercolor="#666666"
   borderopacity="1"
   objecttolerance="10"
   gridtolerance="10"
   guidetolerance="10"
   inkscape:pageopacity="0"
   inkscape:pageshadow="2"
   inkscape:window-width="1366"
   inkscape:window-height="744"
   id="namedview126"
   showgrid="false"
   inkscape:zoom="2.36"
   inkscape:cx="-99.152542"
   inkscape:cy="50"
   inkscape:window-x="0"
   inkscape:window-y="24"
   inkscape:window-maximized="1"
   inkscape:current-layer="svg2" />

<g
   id="Your_Icon"
   transform="translate(-155.9322,-5.5084745)"
   inkscape:export-filename="/tmp/democratico.png"
   inkscape:export-xdpi="34.639999"
   inkscape:export-ydpi="34.639999"
   style="fill:#34495e;fill-opacity:1">
	<path
   d="m 56.733,37.163 c -2.035,1.096 -4.341,1.682 -6.668,1.69 -3.786,0.017 -7.353,-1.444 -10.042,-4.11 -2.688,-2.666 -4.174,-6.222 -4.193,-10.009 -0.02,-5.244 2.835,-10.049 7.455,-12.541 2.034,-1.098 4.338,-1.683 6.667,-1.693 3.786,-0.016 7.353,1.444 10.041,4.112 2.689,2.667 4.176,6.221 4.195,10.006 0.019,5.245 -2.835,10.052 -7.455,12.545 l 0,0 z"
   id="path114"
   inkscape:connector-curvature="0"
   style="fill:#34495e;fill-opacity:1" />
	<path
   d="m 81.96,45.299 c -1.529,0.823 -3.261,1.263 -5.011,1.27 -2.845,0.013 -5.526,-1.085 -7.547,-3.089 -2.021,-2.003 -3.138,-4.676 -3.152,-7.522 -0.014,-3.941 2.132,-7.553 5.604,-9.425 1.528,-0.825 3.261,-1.265 5.01,-1.272 2.845,-0.012 5.527,1.085 7.547,3.09 2.021,2.004 3.138,4.676 3.152,7.52 0.014,3.941 -2.131,7.553 -5.603,9.428 l 0,0 z"
   id="path116"
   inkscape:connector-curvature="0"
   style="fill:#34495e;fill-opacity:1" />
	<path
   d="M 61.514,38.582 C 60.502,39.506 59.377,40.26 58.141,40.926 55.675,42.255 52.887,43 50.075,43 h -0.074 c -4.291,0 -8.345,-1.595 -11.505,-4.475 -1.748,1.278 -3.271,2.78 -4.509,4.575 l 0.714,0.482 c 4.669,3.414 7.457,8.879 7.457,14.65 0,4.547 -1.806,10.146 -4.869,14.717 3.417,4.455 7.86,7.611 12.72,7.611 4.867,0 9.314,-3.154 12.733,-7.601 -3.071,-4.574 -4.883,-10.198 -4.883,-14.752 0,-5.776 2.785,-11.262 7.451,-14.675 l 0.629,-0.461 C 64.715,41.352 63.223,39.83 61.514,38.582 z"
   id="path118"
   inkscape:connector-curvature="0"
   style="fill:#34495e;fill-opacity:1" />
	<path
   d="m 85.554,46.364 c -0.761,0.695 -1.606,1.419 -2.535,1.919 C 81.164,49.281 79.069,50 76.956,50 H 76.9 c -3.225,0 -6.271,-1.356 -8.646,-3.521 -3.647,2.67 -6.021,6.925 -6.021,11.792 0,8.104 6.569,19.709 14.673,19.709 8.104,0 14.673,-11.647 14.673,-19.751 0,-4.869 -2.373,-9.195 -6.025,-11.865 z"
   id="path120"
   inkscape:connector-curvature="0"
   style="fill:#34495e;fill-opacity:1" />
	<path
   d="m 28.165,45.299 c -1.529,0.823 -3.262,1.263 -5.012,1.27 -2.844,0.013 -5.525,-1.085 -7.546,-3.089 -2.021,-2.003 -3.137,-4.676 -3.152,-7.522 -0.015,-3.941 2.132,-7.553 5.604,-9.425 1.528,-0.825 3.261,-1.265 5.01,-1.272 2.845,-0.012 5.526,1.085 7.546,3.09 2.022,2.004 3.139,4.676 3.153,7.52 0.014,3.941 -2.132,7.553 -5.603,9.428 l 0,0 z"
   id="path122"
   inkscape:connector-curvature="0"
   style="fill:#34495e;fill-opacity:1" />
	<path
   d="m 31.757,46.364 c -0.76,0.695 -1.606,1.419 -2.534,1.919 C 27.369,49.281 25.273,50 23.161,50 h -0.057 c -3.224,0 -6.271,-1.356 -8.646,-3.521 -3.648,2.67 -6.02,6.925 -6.02,11.792 0,8.104 6.569,19.709 14.673,19.709 8.104,0 14.672,-11.647 14.672,-19.751 0,-4.869 -2.373,-9.195 -6.026,-11.865 z"
   id="path124"
   inkscape:connector-curvature="0"
   style="fill:#34495e;fill-opacity:1" />
</g>
<g
   id="g4306"
   transform="translate(-80.508474,-73.728814)"><rect
     inkscape:export-ydpi="33.651638"
     inkscape:export-xdpi="33.651638"
     inkscape:export-filename="/tmp/democratico.png"
     y="101.63177"
     x="-45.262711"
     height="57.613998"
     width="43.956001"
     id="rect3196"
     style="fill:#ffffff;fill-opacity:1;stroke:#ffffff;stroke-width:1;stroke-miterlimit:4;stroke-opacity:1;stroke-dasharray:none" /><g
     inkscape:export-ydpi="33.651638"
     inkscape:export-xdpi="33.651638"
     inkscape:export-filename="/tmp/democratico.png"
     id="g3829"
     transform="matrix(0.7711644,0,0,0.7711644,-62.998986,92.925624)"
     style="fill:#34495e;fill-opacity:1;stroke:none"><path
       style="fill:#34495e;fill-opacity:1;fill-rule:evenodd;stroke:none"
       inkscape:connector-curvature="0"
       id="path316"
       d="m 23.057,11.29 c 18.938,0 37.875,0 56.812,0 0.259,24.671 0.037,49.827 0.111,74.71 -18.993,0 -37.985,0 -56.979,0 0,-24.848 0,-49.695 0,-74.543 -0.003,-0.08 -0.009,-0.158 0.056,-0.167 z m 6.393,7.782 c 0,0.147 0,0.296 0,0.444 14.219,0.204 29.282,0.11 43.692,0.11 0.359,0 1.258,0.225 1.057,-0.389 0.113,-0.556 -0.77,-0.333 -1.057,-0.333 -14.528,0 -29.231,0 -43.637,0 -0.064,0.01 -0.06,0.089 -0.055,0.168 z m 0,5.003 c 0,0.13 0,0.259 0,0.39 14.403,0.203 29.133,0.111 43.692,0.111 0.455,0 1.146,0.2 1.057,-0.391 -0.045,-0.296 0.055,-0.211 -0.389,-0.277 -0.255,-0.038 -0.58,0 -0.724,0 -14.614,0 -29.163,0 -43.581,0 -0.064,0.01 -0.06,0.089 -0.055,0.167 z m 0,4.67 c 14.219,0.202 29.282,0.111 43.692,0.111 0.359,0 1.258,0.223 1.057,-0.391 0.113,-0.557 -0.77,-0.333 -1.057,-0.333 -14.51,0 -29.195,0 -43.581,0 -0.201,0.04 -0.076,0.407 -0.111,0.613 z m 0,4.28 c 0,0.129 0,0.259 0,0.39 0.315,0.307 0.86,0.166 1.223,0.166 14.13,0 28.42,0 42.47,0 0.278,0 1.107,0.267 1.057,-0.391 0.113,-0.556 -0.77,-0.331 -1.057,-0.331 -14.51,0 -29.195,0 -43.581,0 -0.071,0.022 -0.114,0.07 -0.112,0.166 z m 0,4.558 c 0,0.13 0,0.26 0,0.389 0.315,0.309 0.86,0.167 1.223,0.167 14.13,0 28.42,0 42.47,0 0.278,0 1.107,0.267 1.057,-0.389 0.113,-0.558 -0.77,-0.333 -1.057,-0.333 -14.51,0 -29.195,0 -43.581,0 -0.071,0.021 -0.114,0.07 -0.112,0.166 z m 0,5.114 c 14.219,0.203 29.282,0.111 43.692,0.111 0.359,0 1.258,0.223 1.057,-0.39 0.113,-0.557 -0.77,-0.334 -1.057,-0.334 -14.51,0 -29.195,0 -43.581,0 -0.201,0.04 -0.076,0.406 -0.111,0.613 z m 0,4.169 c 0,0.148 0,0.297 0,0.445 14.219,0.203 29.282,0.11 43.692,0.11 0.359,0 1.258,0.224 1.057,-0.388 0.113,-0.558 -0.77,-0.335 -1.057,-0.335 -14.528,0 -29.231,0 -43.637,0 -0.064,0.011 -0.06,0.09 -0.055,0.168 z m 0.112,4.391 c 0,0.149 0,0.297 0,0.445 14.219,0.203 29.284,0.111 43.692,0.111 0.359,0 1.258,0.224 1.056,-0.389 0.114,-0.557 -0.77,-0.333 -1.056,-0.333 -14.529,0 -29.232,0 -43.637,0 -0.064,0.01 -0.06,0.089 -0.055,0.166 z m 0,5.004 c 0,0.148 0,0.296 0,0.445 14.219,0.203 29.284,0.11 43.692,0.11 0.359,0 1.258,0.224 1.056,-0.389 0.114,-0.556 -0.77,-0.333 -1.056,-0.333 -14.529,0 -29.232,0 -43.637,0 -0.064,0.01 -0.06,0.089 -0.055,0.167 z m 16.788,5.225 c -0.228,-0.421 -0.555,-1.408 -1.001,-1.334 -0.069,0.022 -0.113,0.071 -0.111,0.167 0.522,1.807 0.938,4.249 1.167,6.393 0.072,0.673 0.404,1.543 -0.109,2.056 -0.474,-0.074 -0.731,-1.041 -1.28,-1 -0.588,0.045 -0.675,1.054 -1.111,1.445 -0.946,-0.073 -1.962,-0.076 -2.891,-0.166 0.437,-2.471 0.134,-4.708 -1.89,-4.837 -1.433,-0.093 -2.793,0.564 -4.003,1.168 -1.319,0.656 -2.401,1.301 -3.112,2.112 -0.601,0.685 -1.146,1.963 -0.556,2.834 -1.619,0.348 -3.206,0.843 -4.614,1.391 -0.449,0.174 -1.024,0.288 -1.279,0.722 1.014,-0.107 1.939,-0.666 2.947,-1 1.041,-0.345 2.126,-0.579 3.225,-0.89 0.563,0.504 1.852,0.726 3.001,0.723 0.716,-0.002 1.712,0.003 1.945,-0.444 -1.263,-0.01 -3.411,0.429 -4.224,-0.445 2.475,-0.416 5.164,-0.912 7.948,-0.833 -0.212,0.974 -0.36,2.012 -0.723,2.835 -3.354,0.036 -6.856,-0.074 -10.117,0.055 0,0.223 0,0.445 0,0.668 3.317,0.037 6.781,-0.075 10.007,0.055 -0.241,0.911 -0.548,2.046 -0.557,3.003 2.452,0.153 3.928,-1.149 4.503,-3.058 1.479,0 3.042,0 4.669,0 2.004,0 4.387,-0.198 5.614,0.333 0.279,0.001 0.21,-0.347 0.5,-0.333 1.224,0 2.446,0 3.671,0 0,-0.241 0,-0.482 0,-0.723 -1.095,0 -2.188,0 -3.281,0 0.258,-0.465 0.469,-0.978 0.778,-1.39 0.46,-0.114 1.194,0.045 1.39,-0.334 -0.271,-0.248 -0.749,-0.287 -1.111,-0.444 0.657,-1.744 0.53,-3.828 -0.557,-4.893 -1.98,-1.941 -5.496,-0.898 -7.004,0.779 -0.224,-1.686 -1.09,-3.236 -1.834,-4.615 z m 16.731,11.062 c 0,0.186 0,0.371 0,0.557 3.743,0 7.486,0 11.229,0 0,-0.241 0,-0.482 0,-0.723 -3.724,0 -7.448,0 -11.173,0 -0.065,0.01 -0.061,0.087 -0.056,0.166 z"
       clip-rule="evenodd" /><path
       style="fill:#34495e;fill-opacity:1;fill-rule:evenodd;stroke:none"
       inkscape:connector-curvature="0"
       id="path318"
       d="m 46.238,62.319 c 0.266,0.452 0.691,1.13 1.001,1.891 0.265,0.652 0.666,1.709 0.556,2.278 -0.081,0.411 -0.602,0.689 -0.835,1.057 -0.098,-1.885 -0.427,-3.539 -0.722,-5.226 z"
       clip-rule="evenodd" /><path
       style="fill:#34495e;fill-opacity:1;fill-rule:evenodd;stroke:none"
       inkscape:connector-curvature="0"
       id="path320"
       d="m 40.513,69.158 c -3.073,0.095 -5.845,0.492 -8.505,1 -0.95,-1.555 0.75,-3.018 1.89,-3.78 1.064,-0.714 2.965,-1.685 4.446,-1.835 2.528,-0.255 2.658,2.304 2.169,4.615 z"
       clip-rule="evenodd" /><path
       style="fill:#34495e;fill-opacity:1;fill-rule:evenodd;stroke:none"
       inkscape:connector-curvature="0"
       id="path322"
       d="m 55.244,70.158 c -1.576,-0.117 -2.809,0.361 -4.225,0.222 -0.122,-0.317 0.029,-0.566 0,-0.944 -1.178,-0.269 -2.712,-0.181 -3.893,-0.444 0.047,-0.671 0.716,-0.834 0.945,-1.501 0.077,-0.223 -0.003,-0.562 0.111,-0.835 0.191,-0.455 1.066,-0.963 1.611,-1.277 0.901,-0.521 1.737,-0.909 3.002,-0.779 2.467,0.252 3.683,3.116 2.449,5.558 z"
       clip-rule="evenodd" /><path
       style="fill:#34495e;fill-opacity:1;fill-rule:evenodd;stroke:none"
       inkscape:connector-curvature="0"
       id="path324"
       d="m 46.127,69.491 c -0.447,0.02 -1.201,-0.134 -1.724,-0.223 0.159,-0.36 0.361,-0.676 0.556,-1.001 0.707,0.202 0.635,0.934 1.168,1.224 z"
       clip-rule="evenodd" /><path
       style="fill:#34495e;fill-opacity:1;fill-rule:evenodd;stroke:none"
       inkscape:connector-curvature="0"
       id="path326"
       d="m 43.848,69.547 c -0.275,0.873 -0.462,1.835 -0.611,2.835 -1.001,0 -2.001,0 -3.002,0 0.293,-0.931 0.535,-1.911 0.723,-2.946 0.999,0 2.027,-0.028 2.89,0.111 z"
       clip-rule="evenodd" /><path
       style="fill:#34495e;fill-opacity:1;fill-rule:evenodd;stroke:none"
       inkscape:connector-curvature="0"
       id="path328"
       d="m 47.127,69.436 c 1.141,0.121 2.559,-0.038 3.391,0.389 -0.033,0.133 -0.079,0.255 -0.055,0.445 -1.135,-0.145 -2.189,-0.368 -3.279,-0.556 0.045,-0.157 -0.08,-0.146 -0.057,-0.278 z"
       clip-rule="evenodd" /><path
       style="fill:#34495e;fill-opacity:1;fill-rule:evenodd;stroke:none"
       inkscape:connector-curvature="0"
       id="path330"
       d="m 46.295,69.824 c 0.294,0.742 0.543,1.531 0.555,2.558 -1.057,0 -2.113,0 -3.168,0 0.193,-0.937 0.317,-1.943 0.611,-2.78 0.745,-0.005 1.288,0.195 2.002,0.222 z"
       clip-rule="evenodd" /><path
       style="fill:#34495e;fill-opacity:1;fill-rule:evenodd;stroke:none"
       inkscape:connector-curvature="0"
       id="path332"
       d="m 47.184,69.991 c 0.896,0.252 2.03,0.267 2.834,0.611 -1.133,-0.016 -2.356,0.059 -2.834,-0.611 z"
       clip-rule="evenodd" /><path
       style="fill:#34495e;fill-opacity:1;fill-rule:evenodd;stroke:none"
       inkscape:connector-curvature="0"
       id="path334"
       d="m 55.021,70.547 c -0.265,0.254 -0.995,0.042 -1.444,0.111 0.35,-0.167 0.941,-0.096 1.444,-0.111 z"
       clip-rule="evenodd" /><path
       style="fill:#34495e;fill-opacity:1;fill-rule:evenodd;stroke:none"
       inkscape:connector-curvature="0"
       id="path336"
       d="m 47.239,70.658 c 0.885,0.354 2.187,0.27 3.335,0.222 0.111,0.687 0.734,1.156 1,1.502 -1.408,0 -2.816,0 -4.225,0 -0.047,-0.564 -0.101,-1.122 -0.11,-1.724 z"
       clip-rule="evenodd" /><path
       style="fill:#34495e;fill-opacity:1;fill-rule:evenodd;stroke:none"
       inkscape:connector-curvature="0"
       id="path338"
       d="m 54.854,70.992 c -0.182,0.502 -0.469,0.901 -0.666,1.39 -1.778,0.239 -2.705,-0.373 -3.058,-1.557 1.204,-0.099 2.356,0.252 3.724,0.167 z"
       clip-rule="evenodd" /><path
       style="fill:#34495e;fill-opacity:1;fill-rule:evenodd;stroke:none"
       inkscape:connector-curvature="0"
       id="path340"
       d="m 43.014,73.104 c -0.419,1.601 -1.518,2.815 -3.445,2.724 -0.037,-0.91 0.256,-1.965 0.555,-2.724 0.963,0 1.927,0 2.89,0 z"
       clip-rule="evenodd" /><path
       style="fill:#34495e;fill-opacity:1;fill-rule:evenodd;stroke:none"
       inkscape:connector-curvature="0"
       id="path342"
       d="m 47.572,67.434 c 0.111,0.02 -0.222,0.507 -0.333,0.667 -0.058,-0.17 0.227,-0.474 0.333,-0.667 z"
       clip-rule="evenodd" /></g></g></svg>